<svg xmlns="http://www.w3.org/2000/svg" width="20.77" height="17.799" viewBox="0 0 20.77 17.799">
  <path id="Icon_ionic-md-eye-off" data-name="Icon ionic-md-eye-off" d="M12.637,8.245a4.708,4.708,0,0,1,4.723,4.686,4.508,4.508,0,0,1-.338,1.715l2.758,2.735a11.081,11.081,0,0,0,3.24-4.45A11.185,11.185,0,0,0,8.869,6.558l2.039,2.026A4.67,4.67,0,0,1,12.637,8.245ZM3.2,5.691,5.351,7.828l.436.431A11.028,11.028,0,0,0,2.25,12.931,11.2,11.2,0,0,0,16.772,19.17l.4.394L19.938,22.3l1.2-1.191L4.391,4.5Zm5.219,5.177,1.465,1.451a2.655,2.655,0,0,0-.074.607,2.818,2.818,0,0,0,2.832,2.809,2.664,2.664,0,0,0,.612-.074l1.465,1.451a4.7,4.7,0,0,1-6.8-4.19A4.63,4.63,0,0,1,8.415,10.869Zm4.07-.728,2.976,2.953.019-.148a2.818,2.818,0,0,0-2.832-2.809Z" transform="translate(-2.25 -4.5)" fill="#A368FF"/>
</svg>
